# xmcd
# 
# Track frame offsets:
#     150
#     14290
#     29595
#     42702
#     56817
#     67057
#     79005
#     91475
#     105447
#     120115
#     131880
#     144120
#     160137
#     173280
#     187507
#     201322
#     214502
#     226997
#     240090
#     253827
# 
# Disc length: 3560
# 
# Revision: 4
# Processed by: cddbd v1.5.2PL0 Copyright (c) Steve Scherf et al.
# Submitted via: fre:ac v1.0.17
# 
DISCID=020de614
DTITLE=Various Artist - Classic colletion presents Vol 1
DYEAR=0
DGENRE=Blues
TTITLE0=Its the blues - John Lee Hooker - Stomp Boogie
TTITLE1=Its the blues - Muddy Waters - Country Blues
TTITLE2=Its the blues - Leadbelly - Good Morning Blues
TTITLE3=Its the blues - Bessie Smith - Lady Luck Blues
TTITLE4=Its the blues - Lightning Hopkins - Down Baby
TTITLE5=Its the blues - Robert Johnson - When You Got A Good Friend
TTITLE6=Its the blues - Mississippi John Hurt - Candy Man Blues
TTITLE7=Its the blues - Muddy Waters - I Be's Troubled
TTITLE8=Its the blues - Big Joe Williams - Highway 49
TTITLE9=Its the blues - Arthur 'Big Boy' Group - Mean Old Frisco Blues
TTITLE10=Its the blues - Ma Rainey - Stormy Sea Blues
TTITLE11=Its the blues - Muddy Waters - Country Blues
TTITLE12=Its the blues - Memphis Minnie - Frisco Town
TTITLE13=Its the blues - Billie Holiday - Guess Who
TTITLE14=Its the blues - John Lee Hooker - Alberta
TTITLE15=Its the blues - Muddy Waters - Burr Clover Farm Blues
TTITLE16=Its the blues - Blind Boy Fuller and Sonny Terry - Train Whistle Blues
TTITLE17=Its the blues - Lightning Hopkins - L.A. Blues
TTITLE18=Its the blues - Leadbelly - New York City
TTITLE19=Its the blues - Big Joe Williams - Brother James
EXTD=Going for a song LTD
EXTT0=
EXTT1=
EXTT2=
EXTT3=
EXTT4=
EXTT5=
EXTT6=
EXTT7=
EXTT8=
EXTT9=
EXTT10=
EXTT11=
EXTT12=
EXTT13=
EXTT14=
EXTT15=
EXTT16=
EXTT17=
EXTT18=
EXTT19=
PLAYORDER=
